<svg width="556" height="262" viewBox="0 0 556 262" fill="none" xmlns="http://www.w3.org/2000/svg">
<path d="M1.81544 182.967C3.3265 198.252 4.48696 214.447 9.46844 229.359C14.5321 244.519 29.4774 255.996 50.4259 259.314C69.7584 262.375 90.5672 261.491 110.218 261.719C196.671 262.723 369.541 261.065 455.807 256.751C476.416 255.721 498.811 256.056 518.941 252.384C541.812 248.209 553.831 234.765 555.321 218.057C556.644 203.218 555.616 188.085 555.686 173.214C555.761 157.391 555.834 141.569 555.907 125.748C555.926 119.746 555.613 100.852 554.116 94.9407C553.534 89.7967 552.019 84.7332 549.613 79.8847C541.619 64.5082 523.675 56.8911 502.475 54.0462C431.731 44.5538 273.195 52.3663 201.198 51.6568C194.631 36.9066 182.01 24.0181 165.075 14.7671C148.139 5.51598 127.722 0.357601 106.636 0.00262897C98.6931 -0.155947 95.8628 6.89733 100.529 10.8523C107.216 16.5579 112.209 23.2291 115.188 30.438C118.167 37.6468 119.066 45.2343 117.827 52.7137C111.02 52.9525 104.215 53.2287 97.4113 53.5422C77.5383 54.4829 56.5834 54.6099 38.2544 60.9577C0.229511 74.1242 0.854936 109.734 0.138209 136.063C-0.28787 151.705 0.271207 167.339 1.81544 182.964" fill="#60CFFD"/>
</svg>
